<svg viewBox="0 0 24 24" xmlns="http://www.w3.org/2000/svg">
  <circle cx="12" cy="12" r="3" fill="#4f46e5"/>
  <path d="M4.9 13.5a7.9 7.9 0 0 1 0-3l1.7-.4a1 1 0 0 0 .7-1.3l-.7-1.6a8 8 0 0 1 2.6-2.6L10.8 5a1 1 0 0 0 1.3-.7l.4-1.7a7.9 7.9 0 0 1 3 0l.4 1.7a1 1 0 0 0 1.3.7l1.6-.7a8 8 0 0 1 2.6 2.6l-.7 1.6a1 1 0 0 0 .7 1.3l1.7.4a7.9 7.9 0 0 1 0 3l-1.7.4a1 1 0 0 0-.7 1.3l.7 1.6a8 8 0 0 1-2.6 2.6l-1.6-.7a1 1 0 0 0-1.3.7l-.4 1.7a7.9 7.9 0 0 1-3 0l-.4-1.7a1 1 0 0 0-1.3-.7l-1.6.7a8 8 0 0 1-2.6-2.6l.7-1.6a1 1 0 0 0-.7-1.3z" fill="#e5e7eb"/>
</svg>
